<svg width="25" height="24" viewBox="0 0 25 24" fill="none" xmlns="http://www.w3.org/2000/svg">
<g clip-path="url(#clip0_15949_2751)">
<path d="M12.125 0C5.52969 0 0.125 5.40469 0.125 12C0.125 18.5953 5.52969 24 12.125 24C18.7203 24 24.125 18.5953 24.125 12C24.125 5.40469 18.7203 0 12.125 0ZM2.98438 12C2.98438 6.96558 7.09058 2.85938 12.125 2.85938C14.0234 2.85938 15.8516 3.44995 17.4125 4.56089L12.125 9.84839L4.68598 17.2875C3.57495 15.7265 2.98438 13.8984 2.98438 12ZM12.125 21.1406C10.2266 21.1406 8.39839 20.55 6.8375 19.439L19.5641 6.71245C20.675 8.27339 21.2656 10.1015 21.2656 12C21.2656 17.0343 17.1594 21.1406 12.125 21.1406Z" fill="#FF3636"/>
<path d="M24.125 12C24.125 18.5953 18.7203 24 12.125 24V21.1406C17.1594 21.1406 21.2656 17.0343 21.2656 12C21.2656 10.1015 20.675 8.27339 19.564 6.7125L12.125 14.1515V9.84839L17.4125 4.56089C15.8516 3.44995 14.0234 2.85938 12.125 2.85938V0C18.7203 0 24.125 5.40469 24.125 12Z" fill="#F40000"/>
</g>
<defs>
<clipPath id="clip0_15949_2751">
<rect width="24" height="24" fill="white" transform="translate(0.125)"/>
</clipPath>
</defs>
</svg>
