<svg width="20" height="20" viewBox="0 0 20 20" fill="none" xmlns="http://www.w3.org/2000/svg">
<g clip-path="url(#clip0_16335_112)">
<path d="M13.0602 14.4766C13.4672 14.055 13.7177 13.4812 13.7177 12.8489C13.7177 11.5544 12.6683 10.5051 11.3739 10.5051C10.0795 10.5051 9.03012 11.5544 9.03012 12.8489C9.03012 13.0642 9.05914 13.2727 9.11352 13.4708M14.5343 16.5415L18.3982 12.6816C18.8336 12.2466 18.8338 11.5411 18.3986 11.1059C17.9592 10.6665 17.2529 10.6665 16.8174 11.1021L13.0308 14.8886" stroke="#3C3C3C" stroke-miterlimit="10" stroke-linecap="round" stroke-linejoin="round"/>
<path d="M14.5343 16.5415L13.8729 17.2022C13.2761 17.7983 12.4671 18.1332 11.6237 18.1332H6.51528L5.0391 19.6094L1.27512 16.3757C1.77813 15.8716 3.47428 14.1332 3.91424 13.6907C4.57054 13.0306 5.46301 12.6595 6.39821 12.6595C6.96884 12.6595 7.52894 12.8132 8.0196 13.1045C8.49054 13.3842 9.03195 13.5341 9.57965 13.5341L11.8916 13.534C12.5278 13.5339 13.0434 14.0496 13.0434 14.6914C13.0434 15.3247 12.53 15.838 11.8968 15.8379L8.36405 15.8375M16.2634 0.443359C16.2909 1.48841 17.1337 2.33033 18.1791 2.3565" stroke="#3C3C3C" stroke-miterlimit="10" stroke-linecap="round" stroke-linejoin="round"/>
<path d="M12.9557 0.390625H18.2292V7.8907H7.49292M4.1666 4.73336V0.390625H9.44008" stroke="#3C3C3C" stroke-miterlimit="10" stroke-linecap="round" stroke-linejoin="round"/>
<path d="M11.1979 6.04513C12.2497 6.04513 13.1024 5.19246 13.1024 4.14064C13.1024 3.08882 12.2497 2.23615 11.1979 2.23615C10.1461 2.23615 9.2934 3.08882 9.2934 4.14064C9.2934 5.19246 10.1461 6.04513 11.1979 6.04513Z" stroke="#3C3C3C" stroke-miterlimit="10" stroke-linecap="round" stroke-linejoin="round"/>
<path d="M15.0159 4.14066H16.0717M6.13239 0.443359C6.10489 1.48841 5.26207 2.33033 4.21671 2.3565M16.2634 7.83796C16.2909 6.79291 17.1337 5.95099 18.1791 5.92482" stroke="#3C3C3C" stroke-miterlimit="10" stroke-linecap="round" stroke-linejoin="round"/>
<path d="M5.33315 9.18141C6.62758 9.18141 7.67693 8.13207 7.67693 6.83764C7.67693 5.54321 6.62758 4.49387 5.33315 4.49387C4.03872 4.49387 2.98938 5.54321 2.98938 6.83764C2.98938 8.13207 4.03872 9.18141 5.33315 9.18141Z" stroke="#3C3C3C" stroke-miterlimit="10" stroke-linecap="round" stroke-linejoin="round"/>
</g>
<defs>
<clipPath id="clip0_16335_112">
<rect width="20" height="20" fill="white"/>
</clipPath>
</defs>
</svg>
