<svg width="25" height="24" viewBox="0 0 25 24" fill="none" xmlns="http://www.w3.org/2000/svg">
<path d="M21.774 6.81189C22.3027 6.28332 22.5998 5.56636 22.5999 4.81875C22.6 4.07113 22.3031 3.3541 21.7745 2.82539C21.246 2.29668 20.529 1.99961 19.7814 1.99951C19.0338 1.99942 18.3167 2.29632 17.788 2.82489L4.44203 16.1739C4.20985 16.4054 4.03815 16.6904 3.94203 17.0039L2.62103 21.3559C2.59519 21.4424 2.59324 21.5342 2.61538 21.6217C2.63753 21.7092 2.68295 21.7891 2.74683 21.8529C2.8107 21.9167 2.89065 21.962 2.97819 21.984C3.06573 22.006 3.15759 22.0039 3.24403 21.9779L7.59703 20.6579C7.9102 20.5626 8.19521 20.392 8.42703 20.1609L21.774 6.81189Z" stroke="black" stroke-width="2" stroke-linecap="round" stroke-linejoin="round"/>
<path d="M15.6 5L19.6 9" stroke="black" stroke-width="2" stroke-linecap="round" stroke-linejoin="round"/>
</svg>
