<svg width="28" height="28" viewBox="0 0 28 28" fill="none" xmlns="http://www.w3.org/2000/svg">
<path d="M18.0832 8.75004L22.1665 4.66671M24.4998 2.33337L22.1665 4.66671L24.4998 2.33337ZM13.2882 13.545C13.8906 14.1394 14.3694 14.8471 14.6972 15.6273C15.025 16.4075 15.1952 17.2448 15.198 18.0911C15.2009 18.9374 15.0363 19.7758 14.7137 20.5582C14.3912 21.3406 13.9171 22.0515 13.3187 22.6499C12.7203 23.2483 12.0094 23.7224 11.227 24.0449C10.4446 24.3675 9.60616 24.5321 8.7599 24.5292C7.91364 24.5264 7.0763 24.3562 6.29609 24.0284C5.51588 23.7006 4.80821 23.2218 4.21383 22.6194C3.04498 21.4092 2.39822 19.7883 2.41284 18.1059C2.42746 16.4235 3.10229 14.8141 4.292 13.6244C5.4817 12.4347 7.09108 11.7598 8.77351 11.7452C10.4559 11.7306 12.0768 12.3774 13.287 13.5462L13.2882 13.545ZM13.2882 13.545L18.0832 8.75004L13.2882 13.545ZM18.0832 8.75004L21.5832 12.25L25.6665 8.16671L22.1665 4.66671L18.0832 8.75004Z" stroke="#FF6F61" stroke-width="2.33333" stroke-linecap="round" stroke-linejoin="round"/>
</svg>
