<svg width="66" height="66" viewBox="0 0 66 66" fill="none" xmlns="http://www.w3.org/2000/svg">
<rect x="5" y="5" width="56" height="56" rx="28" fill="#DAEBFF"/>
<rect x="5" y="5" width="56" height="56" rx="28" stroke="#EFF7FF" stroke-width="10"/>
<path d="M37.0834 27.75L41.1667 23.6667M43.5001 21.3334L41.1667 23.6667L43.5001 21.3334ZM32.2884 32.545C32.8908 33.1394 33.3697 33.8471 33.6975 34.6273C34.0252 35.4075 34.1954 36.2448 34.1983 37.0911C34.2011 37.9374 34.0365 38.7758 33.714 39.5582C33.3914 40.3406 32.9173 41.0515 32.3189 41.6499C31.7205 42.2483 31.0097 42.7224 30.2273 43.0449C29.4449 43.3675 28.6064 43.5321 27.7601 43.5292C26.9139 43.5264 26.0765 43.3562 25.2963 43.0284C24.5161 42.7006 23.8085 42.2218 23.2141 41.6194C22.0452 40.4092 21.3985 38.7883 21.4131 37.1059C21.4277 35.4235 22.1025 33.8141 23.2922 32.6244C24.4819 31.4347 26.0913 30.7598 27.7738 30.7452C29.4562 30.7306 31.077 31.3774 32.2872 32.5462L32.2884 32.545ZM32.2884 32.545L37.0834 27.75L32.2884 32.545ZM37.0834 27.75L40.5834 31.25L44.6667 27.1667L41.1667 23.6667L37.0834 27.75Z" stroke="#FF6F61" stroke-width="2.33333" stroke-linecap="round" stroke-linejoin="round"/>
</svg>
