<svg width="16" height="18" viewBox="0 0 16 18" fill="none" xmlns="http://www.w3.org/2000/svg">
<path d="M7.98697 0.666687C10.5443 0.666687 12.6022 2.67941 12.6022 5.16376V6.4411C14.0374 6.88907 15.0835 8.18823 15.0836 9.73993V13.8542C15.0836 15.7754 13.4906 17.3336 11.527 17.3337H4.47427C2.50974 17.3337 0.916656 15.7754 0.916656 13.8542V9.73993C0.916849 8.18823 1.96378 6.88907 3.3981 6.4411V5.16376C3.40657 2.67951 5.4637 0.666857 7.98697 0.666687ZM7.99576 10.154C7.58942 10.154 7.25961 10.4764 7.25943 10.8737V12.7126C7.2595 13.1183 7.58934 13.4411 7.99576 13.4411C8.41064 13.4411 8.74081 13.1183 8.74088 12.7126V10.8737C8.74069 10.4764 8.41057 10.154 7.99576 10.154ZM8.00455 2.11591C6.28558 2.11591 4.88802 3.47436 4.87955 5.14716V6.26141H11.1208V5.16376C11.1208 3.48279 9.72337 2.11608 8.00455 2.11591Z" fill="#FF6F61"/>
</svg>
