<svg width="40" height="40" viewBox="0 0 40 40" fill="none" xmlns="http://www.w3.org/2000/svg">
<rect width="40" height="40" rx="20" fill="#FFE4E1"/>
<path d="M19.9879 8C21.1832 8.00013 22.2161 8.61634 22.7769 9.6084L22.855 9.74609L22.9966 9.81348C25.3177 10.9215 26.9254 13.2887 26.9254 16.0254V19.1875C26.9254 19.5057 26.9964 19.9001 27.0943 20.2617C27.1925 20.6245 27.3302 21.0029 27.4898 21.2842L27.4966 21.2959L28.7466 23.3701L28.7476 23.373C29.1553 24.0422 29.228 24.8311 28.9576 25.5488C28.6843 26.2742 28.1207 26.8237 27.3941 27.0625L27.3912 27.0635C25.0192 27.8582 22.523 28.25 20.025 28.25C17.527 28.25 15.0313 27.8582 12.6607 27.0518H12.6597C11.8578 26.7808 11.274 26.2299 11.0328 25.5566L11.0318 25.5527L10.9879 25.4219C10.7889 24.7648 10.8871 24.0482 11.2906 23.3711L12.5533 21.2842L12.5572 21.2773C12.7191 20.9998 12.8575 20.6217 12.9556 20.2607C13.0537 19.9002 13.1246 19.5057 13.1246 19.1875V16.0254C13.1246 13.3246 14.6963 10.9799 16.9722 9.84766L17.1109 9.7793L17.1861 9.64355C17.749 8.637 18.8091 8 19.9879 8Z" fill="#FF6F61" stroke="#FF6F61"/>
<path d="M17.3392 30.6113C17.4972 30.6298 17.6586 30.6466 17.8207 30.6602C18.5444 30.7236 19.2834 30.7627 20.0248 30.7627C20.7546 30.7627 21.4826 30.7237 22.1947 30.6602H22.1976C22.3319 30.6474 22.4927 30.6341 22.6566 30.6191C22.0643 31.4539 21.095 31.9999 20.0004 32C19.1439 32 18.2995 31.6516 17.7094 31.04L17.7015 31.0312L17.6918 31.0225C17.5624 30.9011 17.4445 30.762 17.3392 30.6113Z" fill="#FF6F61" stroke="#FF6F61"/>
</svg>
