<svg width="28" height="28" viewBox="0 0 28 28" fill="none" xmlns="http://www.w3.org/2000/svg">
<rect width="28" height="28" rx="14" fill="#FFE4E1"/>
<path d="M20.1425 15.545L19.295 14.135C19.1075 13.8275 18.9425 13.235 18.9425 12.875V11.4725C18.9425 8.75001 16.73 6.53751 14.015 6.53751C11.2925 6.54501 9.08003 8.75001 9.08003 11.4725V12.8675C9.08003 13.2275 8.91503 13.82 8.73503 14.1275L7.88753 15.5375C7.56503 16.085 7.49003 16.7075 7.69253 17.2475C7.89503 17.795 8.35253 18.23 8.95253 18.425C9.76253 18.695 10.58 18.89 11.4125 19.0325C11.495 19.0475 11.5775 19.055 11.66 19.07C11.765 19.085 11.8775 19.1 11.99 19.115C12.185 19.145 12.38 19.1675 12.5825 19.1825C13.055 19.2275 13.535 19.25 14.015 19.25C14.4875 19.25 14.96 19.2275 15.425 19.1825C15.5975 19.1675 15.77 19.1525 15.935 19.13C16.07 19.115 16.205 19.1 16.34 19.0775C16.4225 19.07 16.505 19.055 16.5875 19.04C17.4275 18.905 18.26 18.695 19.07 18.425C19.6475 18.23 20.09 17.795 20.3 17.24C20.51 16.6775 20.45 16.0625 20.1425 15.545ZM14.5625 12.5C14.5625 12.815 14.3075 13.07 13.9925 13.07C13.6775 13.07 13.4225 12.815 13.4225 12.5V10.175C13.4225 9.86001 13.6775 9.60501 13.9925 9.60501C14.3075 9.60501 14.5625 9.86001 14.5625 10.175V12.5Z" fill="#FF6F61"/>
<path d="M16.1225 20.0075C15.8075 20.8775 14.975 21.5 14 21.5C13.4075 21.5 12.8225 21.26 12.41 20.8325C12.17 20.6075 11.99 20.3075 11.885 20C11.9825 20.015 12.08 20.0225 12.185 20.0375C12.3575 20.06 12.5375 20.0825 12.7175 20.0975C13.145 20.135 13.58 20.1575 14.015 20.1575C14.4425 20.1575 14.87 20.135 15.29 20.0975C15.4475 20.0825 15.605 20.075 15.755 20.0525C15.875 20.0375 15.995 20.0225 16.1225 20.0075Z" fill="#FF6F61"/>
</svg>

