<svg width="18" height="16" viewBox="0 0 18 16" fill="none" xmlns="http://www.w3.org/2000/svg">
<path d="M14.9755 1.09534C15.2194 0.85744 15.601 0.857483 15.8368 1.09534C16.0807 1.33326 16.0807 1.72656 15.8368 1.96448L14.3573 3.45765C15.5362 4.54049 16.536 6.00101 17.2841 7.75647C17.3491 7.91235 17.3491 8.09317 17.2841 8.24085C15.544 12.3265 12.4465 14.7711 8.99891 14.7711H8.99109C7.42178 14.7711 5.91706 14.2546 4.59168 13.3112L3.01453 14.903C2.89269 15.0259 2.7382 15.0835 2.58387 15.0836C2.42938 15.0836 2.26606 15.026 2.15223 14.903C1.94899 14.6979 1.91639 14.3694 2.07898 14.1315L2.1034 14.0992L14.1298 1.96448C14.1459 1.94824 14.1617 1.9319 14.1698 1.91565C14.1861 1.89925 14.2027 1.88226 14.2108 1.86585L14.9755 1.09534ZM9.00086 1.23792C10.1636 1.23792 11.2941 1.51658 12.3348 2.04163L9.61902 4.78186C9.42389 4.74905 9.21226 4.72425 9.00086 4.72425C7.20397 4.72436 5.74891 6.19341 5.74891 8.00647C5.74892 8.21962 5.77305 8.43275 5.80555 8.62952L2.79676 11.6657C1.98364 10.714 1.27675 9.56466 0.715703 8.24378C0.650775 8.09618 0.650736 7.91615 0.715703 7.76038C2.45577 3.67467 5.55357 1.23792 8.99305 1.23792H9.00086ZM10.7958 7.0514C10.9421 7.33034 11.0233 7.65897 11.0233 8.00354C11.0231 9.12729 10.1127 10.0455 8.99891 10.0455C8.6574 10.0455 8.33201 9.96372 8.05555 9.81604L7.16981 10.7106C7.69013 11.0632 8.32417 11.277 8.99891 11.277C10.7876 11.277 12.2428 9.80825 12.243 8.00354C12.243 7.32259 12.0321 6.68194 11.6825 6.15686L10.7958 7.0514Z" fill="#FF6F61"/>
</svg>
