<svg width="14" height="14" viewBox="0 0 14 14" fill="none" xmlns="http://www.w3.org/2000/svg">
<g clip-path="url(#clip0_1_6969)">
<path d="M12.7173 5.83321C12.9837 7.14063 12.7939 8.49987 12.1794 9.68425C11.5649 10.8686 10.563 11.8066 9.34069 12.3416C8.11839 12.8767 6.74959 12.9766 5.46257 12.6246C4.17554 12.2726 3.04809 11.49 2.26822 10.4074C1.48835 9.32472 1.10321 8.00743 1.17703 6.67518C1.25084 5.34293 1.77915 4.07626 2.67385 3.08639C3.56855 2.09652 4.77556 1.44329 6.0936 1.23564C7.41163 1.02798 8.76101 1.27846 9.91672 1.94529" stroke="white" stroke-linecap="round" stroke-linejoin="round"/>
<path d="M5.25 6.41683L7 8.16683L12.8333 2.3335" stroke="white" stroke-linecap="round" stroke-linejoin="round"/>
</g>
<defs>
<clipPath id="clip0_1_6969">
<rect width="14" height="14" fill="white"/>
</clipPath>
</defs>
</svg>
