<svg width="20" height="20" viewBox="0 0 20 20" fill="none" xmlns="http://www.w3.org/2000/svg">
<path d="M10.1 10.65C10.0417 10.6417 9.96666 10.6417 9.9 10.65C8.43333 10.6 7.26666 9.39998 7.26666 7.92498C7.26666 6.41665 8.48333 5.19165 10 5.19165C11.5083 5.19165 12.7333 6.41665 12.7333 7.92498C12.725 9.39998 11.5667 10.6 10.1 10.65Z" stroke="#3C3C3C" stroke-width="1.5" stroke-linecap="round" stroke-linejoin="round"/>
<path d="M15.6167 16.15C14.1333 17.5083 12.1667 18.3333 10 18.3333C7.83333 18.3333 5.86666 17.5083 4.38333 16.15C4.46666 15.3667 4.96666 14.6 5.85833 14C8.14166 12.4833 11.875 12.4833 14.1417 14C15.0333 14.6 15.5333 15.3667 15.6167 16.15Z" stroke="#3C3C3C" stroke-width="1.5" stroke-linecap="round" stroke-linejoin="round"/>
<path d="M9.99999 18.3334C14.6024 18.3334 18.3333 14.6024 18.3333 10C18.3333 5.39765 14.6024 1.66669 9.99999 1.66669C5.39762 1.66669 1.66666 5.39765 1.66666 10C1.66666 14.6024 5.39762 18.3334 9.99999 18.3334Z" stroke="#3C3C3C" stroke-width="1.5" stroke-linecap="round" stroke-linejoin="round"/>
</svg>
