<svg width="65" height="64" viewBox="0 0 65 64" fill="none" xmlns="http://www.w3.org/2000/svg">
<path d="M32.5 64C24.2535 64 16.4743 62.9 10.5953 60.9026C2.2515 58.0679 0.5 54.4369 0.5 51.8901C0.5 48.5678 3.46863 46.2395 5.95888 44.8715C6.86675 44.3729 8.00638 44.7045 8.505 45.612C9.00362 46.5196 8.67212 47.6596 7.7645 48.1581C5.531 49.3851 4.25 50.7454 4.25 51.8901C4.25 53.2903 6.23375 55.4603 11.8016 57.3519C17.3022 59.2209 24.6531 60.25 32.5 60.25C40.3469 60.25 47.6978 59.2209 53.1984 57.3519C58.7663 55.4604 60.75 53.2903 60.75 51.8901C60.75 50.7454 59.469 49.3851 57.2355 48.158C56.3279 47.6595 55.9964 46.5195 56.495 45.6119C56.9934 44.7044 58.1333 44.3728 59.0411 44.8714C61.5314 46.2395 64.5 48.5678 64.5 51.8901C64.5 54.4369 62.7485 58.0679 54.4048 60.9026C48.5257 62.9 40.7465 64 32.5 64Z" fill="#FFE4E1"/>
<path d="M59.0411 44.8715C58.1332 44.3729 56.9934 44.7045 56.495 45.612C55.9964 46.5196 56.3279 47.6596 57.2355 48.1581C59.469 49.3851 60.75 50.7454 60.75 51.8901C60.75 53.2903 58.7662 55.4603 53.1984 57.3519C47.6977 59.2209 40.3469 60.25 32.5 60.25H32.4995V64H32.5C40.7465 64 48.5257 62.9 54.4047 60.9026C62.7485 58.0679 64.5 54.4369 64.5 51.8901C64.5 48.5678 61.5314 46.2395 59.0411 44.8715Z" fill="#FFE4E1"/>
<path d="M32.5 56.3087C27.1776 56.3087 22.1502 55.7166 18.344 54.6412C13.6874 53.3259 11.3262 51.4216 11.3262 48.9819C11.3262 46.542 13.6874 44.638 18.344 43.3226C22.1502 42.2472 27.1776 41.6551 32.5 41.6551C37.8224 41.6551 42.8497 42.2472 46.656 43.3226C51.3126 44.638 53.6738 46.5421 53.6738 48.9819C53.6738 51.4216 51.3126 53.3259 46.656 54.6412C42.8497 55.7165 37.8224 56.3087 32.5 56.3087ZM15.108 48.9817C15.3654 49.3596 16.6172 50.3422 20.0442 51.215C23.4459 52.0815 27.8695 52.5586 32.4999 52.5586C37.1302 52.5586 41.554 52.0815 44.9556 51.215C48.3826 50.3422 49.6345 49.3595 49.8919 48.9817C49.6344 48.604 48.3825 47.6214 44.9555 46.7485C41.5539 45.8821 37.1304 45.405 32.4999 45.405C27.8694 45.405 23.4459 45.8821 20.0442 46.7485C16.6174 47.6215 15.3655 48.604 15.108 48.9817Z" fill="#FFE4E1"/>
<path d="M46.656 43.3225C42.8497 42.2471 37.8224 41.655 32.5 41.655H32.4995V45.405H32.5C37.1305 45.405 41.554 45.8821 44.9556 46.7485C48.3826 47.6214 49.6346 48.604 49.892 48.9818C49.6345 49.3596 48.3827 50.3422 44.9557 51.215C41.5541 52.0815 37.1305 52.5586 32.5 52.5586H32.4995V56.3086H32.5C37.8224 56.3086 42.8497 55.7165 46.656 54.6411C51.3126 53.3257 53.6737 51.4215 53.6737 48.9818C53.6737 46.542 51.3126 44.6379 46.656 43.3225Z" fill="#FFE4E1"/>
<path d="M32.5 0C22.889 0 15.07 7.819 15.07 17.4299C15.07 23.4162 22.3429 36.572 28.444 46.5541C29.3148 47.9789 30.831 48.8293 32.5 48.8293C34.1691 48.8293 35.6853 47.9788 36.556 46.5541C42.6573 36.572 49.93 23.4162 49.93 17.4299C49.93 7.819 42.111 0 32.5 0ZM32.5 23.2389C28.637 23.2389 25.4941 20.0961 25.4941 16.2331C25.4941 12.3703 28.637 9.2275 32.5 9.2275C36.363 9.2275 39.5059 12.3703 39.5059 16.2331C39.5059 20.0963 36.363 23.2389 32.5 23.2389Z" fill="#FFA8A0"/>
<path d="M32.5 0H32.4995V9.2275H32.5C36.363 9.2275 39.5059 12.3703 39.5059 16.2331C39.5059 20.0961 36.363 23.2389 32.5 23.2389H32.4995V48.8293H32.5C34.1691 48.8293 35.6852 47.9788 36.556 46.5541C42.6572 36.572 49.93 23.4162 49.93 17.4299C49.93 7.819 42.111 0 32.5 0Z" fill="#FF6F61"/>
</svg>
