<svg width="64" height="64" viewBox="0 0 64 64" fill="none" xmlns="http://www.w3.org/2000/svg">
<path d="M32 18C31.4696 18 30.9609 17.7893 30.5858 17.4142C30.2107 17.0391 30 16.5304 30 16V4.44C30 3.90957 30.2107 3.40086 30.5858 3.02579C30.9609 2.65072 31.4696 2.44 32 2.44C32.5304 2.44 33.0391 2.65072 33.4142 3.02579C33.7893 3.40086 34 3.90957 34 4.44V16C34 16.5304 33.7893 17.0391 33.4142 17.4142C33.0391 17.7893 32.5304 18 32 18Z" fill="#FFCCC7"/>
<path d="M38 12C37.7368 12.0015 37.4759 11.9511 37.2322 11.8515C36.9885 11.752 36.7669 11.6054 36.58 11.42L32 6.82L27.42 11.42C27.0434 11.7966 26.5326 12.0082 26 12.0082C25.4674 12.0082 24.9566 11.7966 24.58 11.42C24.2034 11.0434 23.9918 10.5326 23.9918 10C23.9918 9.4674 24.2034 8.95661 24.58 8.58L30.58 2.58C30.7659 2.39254 30.9871 2.24375 31.2309 2.14222C31.4746 2.04068 31.736 1.9884 32 1.9884C32.264 1.9884 32.5254 2.04068 32.7692 2.14222C33.0129 2.24375 33.2341 2.39254 33.42 2.58L39.42 8.58C39.6075 8.76593 39.7563 8.98713 39.8578 9.23085C39.9593 9.47457 40.0116 9.73598 40.0116 10C40.0116 10.264 39.9593 10.5254 39.8578 10.7692C39.7563 11.0129 39.6075 11.2341 39.42 11.42C39.2331 11.6054 39.0115 11.752 38.7678 11.8515C38.5241 11.9511 38.2632 12.0015 38 12Z" fill="#FF6F61"/>
<path d="M50 48H14C11.7909 48 10 49.7909 10 52V58C10 60.2091 11.7909 62 14 62H50C52.2091 62 54 60.2091 54 58V52C54 49.7909 52.2091 48 50 48Z" fill="#FFCCC7"/>
<path d="M50 34H14C11.7909 34 10 35.7909 10 38V44C10 46.2091 11.7909 48 14 48H50C52.2091 48 54 46.2091 54 44V38C54 35.7909 52.2091 34 50 34Z" fill="#FF6F61"/>
<path d="M50 20H14C11.7909 20 10 21.7909 10 24V30C10 32.2091 11.7909 34 14 34H50C52.2091 34 54 32.2091 54 30V24C54 21.7909 52.2091 20 50 20Z" fill="#FFCCC7"/>
</svg>
