<svg width="64" height="64" viewBox="0 0 64 64" fill="none" xmlns="http://www.w3.org/2000/svg">
<path d="M6.02813 17.9688C6.76748 17.9494 7.24136 18.5105 7.0498 19.2635C6.9796 19.5394 6.8044 19.8008 6.67512 20.0535L6.15726 21.1464C4.93803 23.98 4.21565 27.1581 4.05624 30.2479L4.08401 33.9104C4.26318 36.8384 5.02828 40.4163 6.27883 43.0317C6.52336 43.543 6.82326 44.0395 7.04024 44.5612L7.07343 44.642C7.2484 45.1809 6.86581 45.784 6.34286 45.9353C5.6905 46.0744 5.28998 45.1938 5.05143 44.7285C3.35583 41.4217 2.39828 37.085 2.20634 33.3375C1.96639 28.6524 2.90416 23.7691 4.84893 19.5125C5.13395 18.8886 5.34231 18.224 6.02813 17.9688ZM57.702 17.9698C58.5198 17.9133 58.7934 18.7333 59.0827 19.3514C62.3293 26.2893 62.7193 34.942 60.0831 42.1168L59.1427 44.3708C58.8647 44.9668 58.6092 45.6363 57.9759 45.9307C57.3819 45.9749 57.0103 45.4898 56.8222 44.9758C56.9835 44.4798 57.2272 44.0475 57.4535 43.5808C58.9133 40.5705 59.7872 36.8671 59.9541 33.4998L59.9682 31.7941C59.9682 31.2691 59.9868 30.7328 59.9539 30.209L59.8599 29.304C59.5859 26.3061 58.9068 23.3251 57.6243 20.5938C57.2252 19.7438 56.1924 18.4095 57.702 17.9698ZM44.8843 56.8235C45.993 56.753 46.5154 57.8853 45.4798 58.5738C45.1313 58.8054 44.6978 58.9618 44.3154 59.1328L42.4532 59.9274C39.6875 60.9558 36.4613 61.5705 33.5184 61.7197L32.0419 61.735C27.5625 61.7368 23.1221 60.7533 19.0523 58.8867C18.5859 58.655 17.8368 58.2552 17.9881 57.6023L18.0154 57.4835C18.1336 57.0255 18.78 56.7247 19.217 56.8645C19.7153 57.024 20.1479 57.3269 20.6215 57.5469C23.5805 58.9213 27.1237 59.6547 30.3503 59.8332L32.2284 59.8518C36.0165 59.8497 39.7504 59.1065 43.2273 57.5719C43.7429 57.3443 44.2983 56.9689 44.8388 56.8345L44.8843 56.8235ZM31.0745 1.86051C34.4438 1.68522 38.9912 2.50995 42.0849 3.6185C42.9314 3.92177 45.0537 4.80095 45.7813 5.34245C46.3522 5.7673 46.291 6.70536 45.5959 6.965L45.5633 6.97669C44.9253 7.22245 44.1205 6.5577 43.575 6.28745C40.4999 4.76397 36.4052 3.8273 32.9767 3.78005C32.0992 3.7787 31.2062 3.74555 30.3307 3.79535C27.9427 3.9312 24.5989 4.56165 22.3765 5.43351L20.6104 6.1832C20.2494 6.35588 19.9173 6.57734 19.5639 6.76324C18.9068 7.10894 17.9665 7.02624 17.8436 6.2218L17.8201 6.03915C17.7821 5.472 18.3165 5.22838 18.7525 5.01693L19.5586 4.62782C23.1894 2.87765 27.0748 2.19127 31.0745 1.86051Z" fill="#FFCCC7"/>
<path d="M54.286 46.9838C55.8449 46.9363 57.6743 47.4388 58.9158 48.3996C60.8292 49.8799 61.5587 51.3583 61.8691 53.6719L61.9041 54.0618C61.9959 58.2471 59.0769 61.8461 54.7422 61.9108C50.7475 61.9247 47.8252 59.1127 47.2544 55.2501L47.224 55.0058C46.8778 50.6947 50.0479 47.2948 54.286 46.9838Z" fill="#FF6F61"/>
<path d="M54.4565 50.8557C55.4729 50.77 56.5249 51.3923 57.0208 52.2607C58.0618 54.0838 56.8854 56.2257 54.8429 56.5672C51.2439 56.9389 50.5619 51.2834 54.4565 50.8557Z" fill="#FDFDFD"/>
<path d="M9.11632 46.982C13.0773 46.803 16.4538 49.8248 16.7945 53.7514C17.1721 58.1021 14.0505 61.5204 9.78906 61.8996C6.11176 61.9712 3.33036 59.9358 2.30556 56.3972C1.13658 52.3607 4.04865 47.8982 8.12501 47.0942C8.44972 47.03 8.78704 47.0109 9.11632 46.982Z" fill="#FF6F61"/>
<path d="M9.24163 50.8864C12.6811 50.6559 13.5944 55.8137 9.81027 56.4982C6.42603 56.9765 5.24444 51.4459 9.24163 50.8864Z" fill="#FDFDFD"/>
<path d="M54.084 1.79315L54.0953 1.78497C57.9595 1.60025 61.6073 4.4294 61.8959 8.38217C62.0647 10.6916 61.5537 12.701 60.0074 14.4601C58.7625 15.8763 56.9035 16.812 55.0237 16.9443C48.6243 17.5876 44.8653 9.57996 48.7885 4.60938C50.099 2.94889 52.0082 2.03574 54.084 1.79315Z" fill="#FF6F61"/>
<path d="M54.3937 5.63738C55.751 5.55283 57.0804 6.43638 57.3444 7.80744L57.3895 8.0505C57.6264 9.62374 56.2354 11.0726 54.7499 11.2779C51.0634 11.3643 50.5517 6.06708 54.3937 5.63738Z" fill="#FDFDFD"/>
<path d="M9.13091 1.76537L9.27673 1.7593C16.1021 1.5827 19.224 10.0278 14.7898 14.5919C13.4111 16.0109 11.7426 16.9475 9.74908 16.9775C7.98676 16.9793 6.24622 16.5073 4.86676 15.3541C-0.414828 10.9396 2.20398 2.37249 9.13091 1.76537Z" fill="#FF6F61"/>
<path d="M9.25691 5.66624C10.6717 5.51043 12.0061 6.40046 12.2818 7.8175L12.325 8.05667C12.546 9.58711 11.2813 10.9655 9.81985 11.18C9.14141 11.2457 8.35092 10.9892 7.79856 10.5992C5.95851 9.30006 6.51503 6.08021 9.25691 5.66624Z" fill="#FDFDFD"/>
<path d="M17.6331 44.0187L17.6611 43.6119C18.056 40.7437 19.3961 38.3474 22.155 37.2104C22.86 36.9198 25.7393 36.2105 26.5546 36.3344L26.5938 36.3414C26.7053 36.3603 26.7751 36.408 26.8649 36.4732L31.908 44.5042L36.0994 37.9803C36.4155 37.5072 36.8475 36.635 37.4318 36.4508C37.9574 36.4489 38.507 36.4258 39.0292 36.485C42.6437 36.8945 46.3993 39.5438 46.4085 43.468L46.3979 43.7572C46.3944 43.8212 46.401 43.8518 46.425 43.91C46.0274 44.5875 45.3839 45.1812 44.8037 45.706C37.5054 52.3079 26.4258 52.4495 19.1073 45.6279C18.5804 45.1369 18.0521 44.6068 17.6331 44.0187Z" fill="#FFCCC7"/>
<path d="M17.6331 44.0187C17.0741 43.3007 16.5123 42.5724 16.0344 41.7969C12.6198 36.2552 12.3761 29.1033 15.4724 23.3594C18.4331 17.867 23.493 14.3623 29.5938 13.4063C38.4948 12.0113 47.3425 18.145 49.8904 26.6335C51.3794 31.5942 50.7879 36.8787 48.1973 41.3919C47.6853 42.2839 47.0395 43.0879 46.425 43.91C46.401 43.8518 46.3944 43.8212 46.3979 43.7572L46.4085 43.468C46.3993 39.5438 42.6437 36.8945 39.0292 36.485C38.507 36.4258 37.9574 36.4489 37.4318 36.4527C36.8475 36.635 36.4155 37.5072 36.0994 37.9803L31.908 44.5042L26.8649 36.4732C26.7751 36.408 26.7053 36.3603 26.5938 36.3414L26.5546 36.3344C25.7393 36.2105 22.86 36.9198 22.155 37.2104C19.3961 38.3474 18.056 40.7437 17.6611 43.6119L17.6331 44.0187Z" fill="#FF6F61"/>
<path d="M26.8649 36.4732L26.8849 36.44C27.0252 36.2019 27.5512 34.608 27.3597 34.4615C25.9794 33.406 24.7221 30.5458 24.3654 28.933C24.3298 28.7719 24.2525 28.1613 24.1406 28.0941C23.7005 28.2258 23.5335 27.854 23.4018 27.4688L23.3864 27.4248C23.1501 26.7339 23.2098 26.023 23.9363 25.6799C24.276 25.5195 24.2831 25.6451 24.2821 25.252L24.2811 24.1758C24.2853 20.3646 26.0093 17.7878 29.8004 16.5464C31.749 15.9084 33.5899 16.084 35.4074 17.0175C39.3669 19.0511 39.794 21.6518 39.8139 25.639C40.1823 25.7139 40.4899 25.767 40.7234 26.1003C41.2802 26.8948 40.6429 27.7378 39.8378 28.0478C39.5674 30.4146 38.6084 32.2453 37.0782 33.9993C37.0185 34.0676 36.6027 34.5201 36.6157 34.5619C36.8094 35.1813 36.657 36.0007 37.3493 36.3747L37.4318 36.4508C36.8475 36.635 36.4155 37.5072 36.0994 37.9803L31.908 44.5042L26.8649 36.4732Z" fill="#FDFDFD"/>
</svg>
