<svg width="20" height="20" viewBox="0 0 20 20" fill="none" xmlns="http://www.w3.org/2000/svg">
<path d="M14.5 2.84961C16.0862 2.84961 17.3496 4.27828 17.3496 6C17.3496 6.78496 17.0827 7.52136 16.6201 8.09082C18.1611 8.96204 19.1505 10.7136 19.1504 12.667V14.667C19.1504 14.7283 19.1395 14.7894 19.1182 14.8467C19.0968 14.9041 19.0644 14.9574 19.0234 15.0029C18.9826 15.0483 18.9334 15.0858 18.8779 15.1113C18.8223 15.1369 18.7615 15.1504 18.7002 15.1504H15.8496V17.667C15.8496 17.7283 15.8388 17.7893 15.8174 17.8467C15.796 17.9041 15.7645 17.9575 15.7236 18.0029C15.6827 18.0484 15.6328 18.0857 15.5771 18.1113C15.5217 18.1368 15.4615 18.1504 15.4004 18.1504H4.59961C4.53849 18.1504 4.47833 18.1368 4.42285 18.1113C4.36722 18.0857 4.31731 18.0484 4.27637 18.0029C4.23547 17.9575 4.20403 17.9041 4.18262 17.8467C4.16125 17.7893 4.15041 17.7283 4.15039 17.667V15.1504H1.2998C1.23845 15.1504 1.17773 15.1369 1.12207 15.1113C1.06656 15.0858 1.01744 15.0483 0.976562 15.0029C0.935623 14.9574 0.903248 14.9041 0.881836 14.8467C0.86049 14.7894 0.849632 14.7283 0.849609 14.667V12.667C0.849609 11.3001 1.32993 10.008 2.20508 9.03125H2.20605C2.54986 8.65207 2.94434 8.33298 3.37598 8.08691C2.91587 7.51829 2.65039 6.78322 2.65039 6C2.65039 4.27828 3.91381 2.84962 5.5 2.84961C6.0227 2.84961 6.53555 3.0095 6.9834 3.30957C7.16778 3.43341 7.23664 3.67258 7.1709 3.87793L7.13379 3.96387C7.07477 4.0721 6.97689 4.15552 6.85742 4.18848C6.76706 4.21333 6.6728 4.2067 6.58789 4.17285L6.50684 4.12988C6.1997 3.92403 5.85159 3.81641 5.5 3.81641C4.43951 3.81642 3.5498 4.781 3.5498 6C3.5498 6.74817 3.88702 7.43138 4.44238 7.83203L4.44336 7.83301C4.91088 8.17352 5.49919 8.26956 6.03516 8.09961L6.12891 8.08105C6.34586 8.0625 6.54085 8.21828 6.59668 8.43457C6.62723 8.55386 6.61455 8.68194 6.55957 8.79199C6.50436 8.9023 6.40912 8.98875 6.29102 9.02637C6.03387 9.10815 5.76753 9.15039 5.5 9.15039C5.02589 9.15039 4.56955 9.01278 4.16016 8.76855C3.67621 8.9754 3.22518 9.29101 2.85254 9.70215L2.85352 9.70312C2.14375 10.4951 1.75 11.5478 1.75 12.667V14.1836H4.19824C4.35808 12.7673 4.93029 11.4529 5.85645 10.4209H5.85742C6.31242 9.91823 6.84222 9.5014 7.41406 9.18848C6.87637 8.51463 6.54988 7.63166 6.5498 6.66699C6.5498 4.57758 8.08308 2.84963 10 2.84961C11.9169 2.84961 13.4502 4.57757 13.4502 6.66699C13.4501 7.63241 13.1224 8.51543 12.584 9.18945C14.346 10.1512 15.5503 12.0347 15.7969 14.1836H18.25V12.667C18.25 10.9149 17.2815 9.38121 15.8408 8.76758C15.4317 9.01216 14.9748 9.15039 14.5 9.15039C14.2324 9.15038 13.9659 9.10809 13.709 9.02637C13.5909 8.98876 13.4956 8.90229 13.4404 8.79199C13.3855 8.68195 13.3728 8.55384 13.4033 8.43457C13.467 8.1877 13.7125 8.01903 13.9648 8.09961L14.168 8.15137C14.6463 8.24186 15.1475 8.12976 15.5547 7.83301H15.5557C16.1127 7.43159 16.4502 6.74823 16.4502 6C16.4502 4.78099 15.5605 3.81641 14.5 3.81641C14.1484 3.81642 13.8003 3.92404 13.4932 4.12988C13.2718 4.27771 12.9903 4.19251 12.8662 3.96387C12.8075 3.85563 12.7906 3.72775 12.8174 3.60742C12.8442 3.487 12.9141 3.37836 13.0166 3.30957C13.4644 3.00949 13.9773 2.84962 14.5 2.84961ZM11.8447 9.88672C11.3116 10.2618 10.6798 10.4834 10 10.4834C9.32109 10.4834 8.68991 10.2629 8.15723 9.88867C7.54673 10.1617 6.97711 10.5708 6.50391 11.0938L6.50293 11.0928C5.56697 12.136 5.0498 13.5238 5.0498 15V17.1836H14.9502V15C14.9502 12.736 13.7035 10.7185 11.8447 9.88672ZM10 3.81641C8.60846 3.81643 7.4502 5.08045 7.4502 6.66699C7.45035 8.25335 8.60856 9.51658 10 9.5166C11.3915 9.5166 12.5497 8.25341 12.5498 6.66699C12.5498 5.08043 11.3916 3.81641 10 3.81641Z" fill="#3C3C3C" stroke="#3C3C3C" stroke-width="0.3"/>
</svg>
